<?xml version="1.0" encoding="UTF-8"?>
<svg width="11px" height="11px" viewBox="0 0 11 11" version="1.1" xmlns="http://www.w3.org/2000/svg" xmlns:xlink="http://www.w3.org/1999/xlink">
    <!-- Generator: Sketch 57 (83077) - https://sketch.com -->
    <title>路径备份 3</title>
    <desc>Created with Sketch.</desc>
    <g id="页面-1" stroke="none" stroke-width="1" fill="none" fill-rule="evenodd">
        <path d="M4.31939734,0.114926185 C4.45641511,-0.0383087284 4.67915681,-0.0383087284 4.81617458,0.114926185 C4.95319235,0.268161099 4.95319235,0.517266061 4.81617458,0.670500974 L1.20031079,4.71433105 L10.6486724,4.71433105 C10.8426052,4.71433105 11,4.89035475 11,5.10724108 C11,5.32412742 10.8426052,5.50015112 10.6486724,5.50015112 L1.20031079,5.50015112 L4.81617458,9.5439812 C4.95319235,9.69721611 4.95319235,9.94632107 4.81617458,10.099556 C4.74731437,10.1765664 4.6573745,10.2142857 4.56743463,10.2142857 C4.47749476,10.2142857 4.38755489,10.1757805 4.31869468,10.099556 L0.102763327,5.38463557 C-0.0342544423,5.23140066 -0.0342544423,4.98229569 0.102763327,4.82906078 L4.31939734,0.114926185 Z" id="路径备份-3" fill="#8A8A8A" fill-rule="nonzero"></path>
    </g>
</svg>