<?xml version="1.0" encoding="UTF-8"?>
<svg width="14px" height="19px" viewBox="0 0 14 19" version="1.1" xmlns="http://www.w3.org/2000/svg" xmlns:xlink="http://www.w3.org/1999/xlink">
    <!-- Generator: Sketch 59 (86127) - https://sketch.com -->
    <title>购物袋</title>
    <desc>Created with Sketch.</desc>
    <g id="PC" stroke="none" stroke-width="1" fill="none" fill-rule="evenodd">
        <g id="退货1" transform="translate(-1786.000000, -33.000000)" fill="#fff" fill-rule="nonzero">
            <g id="购物袋" transform="translate(1783.000000, 33.000000)">
                <rect id="Rectangle" opacity="0" x="0" y="0" width="20" height="20"></rect>
                <path d="M15.9211348,5.03353846 C15.8898517,4.66376923 15.659004,4.38461538 15.3850072,4.38461538 L12.692503,4.38461538 L12.692503,3.65384615 C12.692503,1.63984615 11.7342906,0.492272792 10,0.492272792 C8.26570696,0.492272792 7.30749461,1.63984615 7.30749461,3.65384615 L7.30749461,4.38461538 L4.61606915,4.38461538 C4.3409936,4.38461538 4.11122462,4.66376923 4.08102024,5.03353846 L3.00337133,18.1873846 C2.98611169,18.3949231 3.03573316,18.601 3.13821229,18.7573846 C3.23961268,18.9108462 3.38524091,19 3.53842024,19 L16.4615773,19 C16.6147567,19 16.7603849,18.9108462 16.862864,18.7573846 C16.9642644,18.6024615 17.0138859,18.3949231 16.9966262,18.1873846 L15.9211348,5.03353846 Z M7.90533715,5.30769231 C8.23653715,5.30769231 8.50533715,5.57649231 8.50533715,5.90769231 C8.50533715,6.23889231 8.23773715,6.50769231 7.90533715,6.50769231 C7.57413715,6.50769231 7.30533715,6.23889231 7.30533715,5.90769231 C7.30533715,5.57649231 7.57413715,5.30769231 7.90533715,5.30769231 Z M9.99999879,1.40804273 C10.8653948,1.40804273 11.6159328,2.1441 11.6159328,3.55 L11.6159328,4.4 L8.38514352,4.4 L8.38514352,3.55 C8.38514352,2.1441 9.1346028,1.40804273 9.99999879,1.40804273 Z M12.2202477,6.50769231 C11.8890477,6.50769231 11.6202477,6.23889231 11.6202477,5.90769231 C11.6202477,5.57649231 11.8890477,5.30769231 12.2202477,5.30769231 C12.5514477,5.30769231 12.8202477,5.57649231 12.8202477,5.90769231 C12.8202477,6.23889231 12.5526477,6.50769231 12.2202477,6.50769231 Z" id="Shape"></path>
            </g>
        </g>
    </g>
</svg>