<?xml version="1.0" encoding="UTF-8"?>
<svg width="24px" height="23px" viewBox="0 0 24 23" version="1.1" xmlns="http://www.w3.org/2000/svg" xmlns:xlink="http://www.w3.org/1999/xlink">
    <!-- Generator: Sketch 57.1 (83088) - https://sketch.com -->
    <title>收藏</title>
    <desc>Created with Sketch.</desc>
    <g id="去title高保真" stroke="none" stroke-width="1" fill="none" fill-rule="evenodd">
        <g id="个人中心足迹切图" transform="translate(-120.000000, -671.000000)">
            <g id="收藏" transform="translate(120.000000, 671.000000)">
                <rect id="矩形" fill="#000000" fill-rule="nonzero" opacity="0" x="0" y="0" width="24" height="24"></rect>
                <path d="M23.5341818,8.96563636 C23.4338182,8.65854546 23.1136364,8.12181818 22.0909091,7.97290908 L18.0207273,7.38163636 C17.0203636,7.236 15.7958182,6.34690908 15.3474546,5.43927272 L13.5272727,1.7509091 C13.0696364,0.823636383 12.4603636,0.685090922 12.1374545,0.685090922 C11.8145455,0.685090922 11.2052727,0.823636359 10.7476364,1.7509091 L8.92690908,5.43927274 C8.4790909,6.34636364 7.2550909,7.23600002 6.2541818,7.38163638 L2.18399998,7.9729091 C1.16072726,8.12127274 0.840545437,8.65854546 0.740727258,8.96563638 C0.641454539,9.27272728 0.58418182,9.8950909 1.3249091,10.6167273 L4.27036364,13.4874546 C4.99472728,14.1938182 5.46218182,15.6327273 5.2909091,16.6298182 L4.596,20.6836364 C4.46127272,21.468 4.67836364,21.924 4.88454546,22.1689091 C5.30345456,22.6652727 6.054,22.7334546 6.8449091,22.3183636 L10.4847273,20.4043636 C11.3345455,19.9587273 12.9403636,19.9581818 13.7901818,20.4043636 L17.4310909,22.3183636 C17.7823636,22.5027273 18.1172727,22.5965455 18.4276364,22.5965455 C18.8154546,22.5965455 19.1574546,22.4449091 19.3903637,22.1689091 C19.5965455,21.9245455 19.8136364,21.468 19.6794546,20.6841818 L18.9845455,16.6298182 C18.8138182,15.6332727 19.2807273,14.1943636 20.0050909,13.488 L22.9505455,10.6172727 C23.6907273,9.8950909 23.6334545,9.27272728 23.5341818,8.96563636 Z" id="路径" fill="#ffffff"></path>
            </g>
        </g>
    </g>
</svg>