<?xml version="1.0" encoding="UTF-8"?>
<svg width="17px" height="15px" viewBox="0 0 17 15" version="1.1" xmlns="http://www.w3.org/2000/svg" xmlns:xlink="http://www.w3.org/1999/xlink">
    <!-- Generator: Sketch 59 (86127) - https://sketch.com -->
    <title>Group 12</title>
    <desc>Created with Sketch.</desc>
    <g id="PC" stroke="none" stroke-width="1" fill="none" fill-rule="evenodd">
        <g id="PDP-1110" transform="translate(-1066.000000, -349.000000)">
            <g id="Group-12" transform="translate(1066.500000, 348.500000)">
                <rect id="Rectangle" fill="#D8D8D8" opacity="0" x="0" y="0" width="16" height="16"></rect>
                <g id="选中-收藏-copy-4" transform="translate(0.500000, 1.500000)" fill-rule="nonzero" stroke="#C82B2C">
                    <path d="M11.0226516,0 C9.51365756,0 8.19453698,0.86 7.50499667,2.12 C6.8254497,0.86 5.49633578,0 3.97734843,0 C1.77881412,0 0,1.79 0,4 C0,5.05 0.399733511,6 1.0592938,6.72 L7.16522318,12.86 C7.26515656,12.95 7.38507662,13 7.50499667,13 C7.62491672,13 7.74483678,12.95 7.84477015,12.86 L13.9506995,6.72 C14.6002665,6.01 15,5.05 15,4 C15,1.79 13.2211859,0 11.0226516,0 Z" id="Path"></path>
                </g>
            </g>
        </g>
    </g>
</svg>