<?xml version="1.0" encoding="UTF-8"?>
<svg width="16px" height="16px" viewBox="0 0 16 16" version="1.1" xmlns="http://www.w3.org/2000/svg" xmlns:xlink="http://www.w3.org/1999/xlink">
    <!-- Generator: Sketch 59 (86127) - https://sketch.com -->
    <title>搜索</title>
    <desc>Created with Sketch.</desc>
    <g id="Page-1" stroke="none" stroke-width="1" fill="none" fill-rule="evenodd">
        <g id="悬浮条" transform="translate(-1450.000000, -206.000000)" fill="#000000" fill-rule="nonzero">
            <g id="搜索" transform="translate(1450.000000, 206.000000)">
                <path d="M15.836628,15.0476861 L12.2206739,11.4317118 C13.2516033,10.2210259 13.8741337,8.65185833 13.8741337,6.93707222 C13.8741337,3.10583987 10.7683145,0 6.93707857,0 C3.10584269,0 0,3.10583984 0,6.93707222 C0,10.7683046 3.10584269,13.874121 6.93707857,13.874121 C8.65184278,13.874121 10.2210118,13.2515912 11.4317457,12.2206627 L15.0481929,15.836637 C15.2660105,16.0544543 15.6188105,16.0544543 15.836628,15.836637 C16.0544456,15.6188197 16.0544691,15.2655034 15.836628,15.0476861 Z M6.93705511,12.8068935 C3.6951968,12.8068935 1.06722845,10.1783875 1.06722845,6.93707222 C1.06722845,3.69470033 3.6951968,1.06725093 6.93705511,1.06725093 C10.1788899,1.06725093 12.8068818,3.69470033 12.8068818,6.93707222 C12.8068818,10.1783875 10.1789134,12.8068935 6.93705511,12.8068935 Z" id="Shape"></path>
            </g>
        </g>
    </g>
</svg>