<?xml version="1.0" encoding="UTF-8"?>
<svg width="8px" height="9px" viewBox="0 0 8 9" version="1.1" xmlns="http://www.w3.org/2000/svg" xmlns:xlink="http://www.w3.org/1999/xlink">
    <!-- Generator: Sketch 59 (86127) - https://sketch.com -->
    <title>小关闭 </title>
    <desc>Created with Sketch.</desc>
    <g id="PC" stroke="none" stroke-width="1" fill="none" fill-rule="evenodd">
        <g id="小关闭-" transform="translate(-1.000000, -1.000000)" fill="#000000" fill-rule="nonzero">
            <rect id="Rectangle" opacity="0" x="0" y="0" width="10" height="10"></rect>
            <path d="M5.61083984,5.10107422 L8.83203125,1.87988281 C8.99462891,1.71728516 8.99462891,1.44921875 8.83203125,1.28662109 L8.81445312,1.26904297 C8.65185547,1.10644531 8.38378906,1.10644531 8.22119141,1.26904297 L5,4.49462891 L1.77880859,1.26904297 C1.61621094,1.10644531 1.34814453,1.10644531 1.18554687,1.26904297 L1.16796875,1.28662109 C1.00097656,1.44921875 1.00097656,1.71728516 1.16796875,1.87988281 L4.38916016,5.10107422 L1.16796875,8.32226562 C1.00537109,8.48486328 1.00537109,8.75292969 1.16796875,8.91552734 L1.18554688,8.93310547 C1.34814453,9.09570312 1.61621094,9.09570312 1.77880859,8.93310547 L5,5.71191406 L8.22119141,8.93310547 C8.38378906,9.09570312 8.65185547,9.09570312 8.81445312,8.93310547 L8.83203125,8.91552734 C8.99462891,8.75292969 8.99462891,8.48486328 8.83203125,8.32226562 L5.61083984,5.10107422 Z" id="Path"></path>
        </g>
    </g>
</svg>