<?xml version="1.0" encoding="UTF-8"?>
<svg width="34px" height="30px" viewBox="0 0 34 30" version="1.1" xmlns="http://www.w3.org/2000/svg" xmlns:xlink="http://www.w3.org/1999/xlink">
    <!-- Generator: Sketch 59 (86127) - https://sketch.com -->
    <title>实心</title>
    <desc>Created with Sketch.</desc>
    <g id="PC" stroke="none" stroke-width="1" fill="none" fill-rule="evenodd">
        <g id="实心" transform="translate(-2.000000, -4.000000)" fill-rule="nonzero">
            <rect id="Rectangle" fill="#000000" opacity="0" x="0" y="0" width="38" height="38"></rect>
            <path d="M26.4989467,4.01767602 C23.5919417,4.01767602 20.8519854,5.32114226 19.0237149,7.43972587 C17.1954445,5.3211043 14.4555642,4.01767602 11.5484831,4.01767602 C6.39792121,4.01767602 2.41210563,7.92803678 2.41210563,12.9796758 C2.41210563,19.1717576 8.05910498,24.1414481 16.6147043,31.7999436 L19.023715,33.9186032 L21.4327257,31.7999436 C29.9884008,24.1414481 35.6353622,19.1717576 35.6353622,12.9796758 C35.6353622,7.92803678 31.6495466,4.01767602 26.4989467,4.01767602 L26.4989467,4.01767602 Z" id="Path" fill="#C20631"></path>
            <path d="M20.0490198,29.6561831 L19.7115805,29.9579265 L19.0237529,30.5630083 L18.3359632,29.9579265 L18.0001569,29.6561831 C13.9721519,26.0524265 10.4957229,22.9401706 8.19543246,20.1572274 C5.9632299,17.4537643 4.96716521,15.2402072 4.96716521,12.9796378 C4.96716521,11.1992149 5.64041077,9.55918288 6.86192856,8.36117113 C8.07862366,7.16722264 9.74303516,6.50935666 11.548559,6.50935666 C13.6363455,6.50935666 15.6998664,7.45677629 17.0690661,9.0433406 L19.0238288,11.311201 L20.9786674,9.0433406 C22.3478291,7.45677629 24.4112741,6.50935666 26.4990606,6.50935666 C28.3046224,6.50935666 29.9690339,7.16722264 31.1856911,8.36117113 C32.4072469,9.55918288 33.0804544,11.1992149 33.0804544,12.9796378 C33.0804544,15.2401692 32.0843897,17.4537264 29.8522252,20.1572274 C27.5518209,22.9401706 24.0753539,26.0524265 20.0490198,29.6561831 L20.0490198,29.6561831 Z" id="Path" fill="#C20631"></path>
        </g>
    </g>
</svg>