<?xml version="1.0" encoding="UTF-8"?>
<svg width="24px" height="24px" viewBox="0 0 24 24" version="1.1" xmlns="http://www.w3.org/2000/svg" xmlns:xlink="http://www.w3.org/1999/xlink">
    <!-- Generator: Sketch 59 (86127) - https://sketch.com -->
    <title>电话</title>
    <desc>Created with Sketch.</desc>
    <g id="PC" stroke="none" stroke-width="1" fill="none" fill-rule="evenodd">
        <g id="电话" transform="translate(-3.000000, -3.000000)" fill-rule="nonzero">
            <rect id="Rectangle" fill="#000000" opacity="0" x="0" y="0" width="30" height="30"></rect>
            <path d="M4.536,5.967 C3.717,6.987 1.908,11.835 9.666,19.773 C17.841,28.14 23.112,26.349 24.021,25.407 L18.555,19.95 C17.793,20.712 16.809,20.034 14.922,18.498 C13.4820235,17.3248722 12.1643249,16.0091838 10.989,14.571 C10.113,13.491 9.339,12.354 10.14,11.556 L4.536,5.967 Z M25.995,23.454 C26.1580496,23.2931108 26.2495843,23.0734344 26.2490227,22.8443706 C26.2484559,22.6153069 26.1558402,22.396084 25.992,22.236 L25.992,22.23 L21.726,17.979 C21.3903998,17.645356 20.8479444,17.6466987 20.514,17.982 L18.969,19.527 L24.447,24.999 C24.447,24.999 25.995,23.457 25.992,23.457 L25.995,23.454 Z M12.108,9.588 C12.2700652,9.42738482 12.3612354,9.20867178 12.3612354,8.9805 C12.3612354,8.75232822 12.2700652,8.53361518 12.108,8.373 L12.108,8.37 L7.719,3.993 C7.55818264,3.832106 7.33985989,3.74195972 7.11237629,3.74252018 C6.8848927,3.74308588 6.66701889,3.83431185 6.507,3.996 L4.962,5.541 L10.563,11.136 C10.563,11.136 12.108,9.597 12.108,9.594 L12.108,9.588 L12.108,9.588 Z" id="Shape" fill="#E5E5E5"></path>
        </g>
    </g>
</svg>